<svg width="41" height="40" viewBox="0 0 41 40" fill="none" xmlns="http://www.w3.org/2000/svg">
<path fill-rule="evenodd" clip-rule="evenodd" d="M20.6456 0C19.8235 0 19.1571 0.673244 19.1571 1.50377V8.03717C19.1571 8.86767 19.8235 9.54093 20.6456 9.54093C21.4677 9.54093 22.1341 8.86767 22.1341 8.03717V3.07315C30.7266 3.83429 37.466 11.122 37.466 20C37.466 29.3847 29.9353 36.9925 20.6456 36.9925C11.3559 36.9925 3.82521 29.3847 3.82521 20C3.82521 15.8079 5.32592 11.9738 7.81599 9.01028C8.34799 8.37714 8.27118 7.42818 7.64442 6.89074C7.01769 6.35329 6.07834 6.43089 5.54634 7.06403C2.61674 10.5507 0.848145 15.0686 0.848145 20C0.848145 31.0457 9.71175 40 20.6456 40C31.5795 40 40.4431 31.0457 40.4431 20C40.4431 8.95428 31.5795 0 20.6456 0ZM18.3845 21.7466L10.8917 11.1951C10.6794 10.8961 10.7126 10.4858 10.9702 10.2256C11.2277 9.96541 11.6339 9.93187 11.9298 10.1464L22.3744 17.7159C23.8081 18.7549 23.9772 20.8449 22.7295 22.1053C21.4819 23.3657 19.4131 23.1949 18.3845 21.7466Z" fill="#E8E8E8"/>
</svg>
